<?xml version="1.0" encoding="UTF-8" standalone="no"?>
<svg
   xmlns:dc="http://purl.org/dc/elements/1.1/"
   xmlns:cc="http://creativecommons.org/ns#"
   xmlns:rdf="http://www.w3.org/1999/02/22-rdf-syntax-ns#"
   xmlns:svg="http://www.w3.org/2000/svg"
   xmlns="http://www.w3.org/2000/svg"
   xmlns:sodipodi="http://sodipodi.sourceforge.net/DTD/sodipodi-0.dtd"
   xmlns:inkscape="http://www.inkscape.org/namespaces/inkscape"
   viewBox="0 0 512 512"
   id="svg2"
   version="1.1"
   sodipodi:docname="deck.svg"
   inkscape:version="0.92.1 r">
  <metadata
     id="metadata10">
    <rdf:RDF>
      <cc:Work
         rdf:about="">
        <dc:format>image/svg+xml</dc:format>
        <dc:type
           rdf:resource="http://purl.org/dc/dcmitype/StillImage" />
      </cc:Work>
    </rdf:RDF>
  </metadata>
  <defs
     id="defs8" />
  <sodipodi:namedview
     pagecolor="#ffffff"
     bordercolor="#666666"
     borderopacity="1"
     objecttolerance="10"
     gridtolerance="10"
     guidetolerance="10"
     inkscape:pageopacity="0"
     inkscape:pageshadow="2"
     inkscape:window-width="958"
     inkscape:window-height="1019"
     id="namedview6"
     showgrid="false"
     inkscape:zoom="0.4609375"
     inkscape:cx="-290.71186"
     inkscape:cy="256"
     inkscape:window-x="2880"
     inkscape:window-y="36"
     inkscape:window-maximized="0"
     inkscape:current-layer="svg2" />
  <style
     id="style4">.st0{display:none}.st1{display:inline}.st2{fill:#0071bc}.st3{display:inline}.st3,.st4{fill:#fff}</style>
  <g
     id="Ebene_3"
     style="fill:#000000">
    <path
       class="st4"
       d="M432.3 448.1h-348c-13.2 0-24-10.8-24-24V264.6c0-13.2 10.8-24 24-24h348c13.2 0 24 10.8 24 24v159.5c0 13.2-10.8 24-24 24zM380.4 89.8H127.8c-7.7 0-14-6.3-14-14v-6.3c0-7.7 6.3-14 14-14h252.6c7.7 0 14 6.3 14 14v6.3c0 7.7-6.3 14-14 14zm19.4 61.8H110.6c-7.7 0-14-6.3-14-14v-6.3c0-7.7 6.3-14 14-14h289.2c7.7 0 14 6.3 14 14v6.3c0 7.7-6.3 14-14 14zm21.6 61.4H94.6c-7.7 0-14-6.3-14-14v-6.3c0-7.7 6.3-14 14-14h326.8c7.7 0 14 6.3 14 14v6.3c0 7.7-6.3 14-14 14z"
       id="path12"
       fill="#fff"
       style="fill:#000000" />
  </g>
</svg>
